PathFileType	3	(X/Y/Z)	E:\ViconData\BIOM9541 2025\Week 7\Wed1100\Hanif high squat 2-5 Squat 01.trc
DataRate	CameraRate	NumFrames	NumMarkers	Units	OrigDataRate	OrigDataStartFrame	OrigNumFrames
200.0	200.0	17	19	mm	200.0	335	1337	
Frame#	Time	C7			CLAV			RBAK			LASI			RASI			LPSI			RPSI			LTHI			LKNE			LTIB			LANK			LHEE			LTOE			RTHI			RKNE			RTIB			RANK			RHEE			RTOE			
		X1	Y1	Z1	X2	Y2	Z2	X3	Y3	Z3	X4	Y4	Z4	X5	Y5	Z5	X6	Y6	Z6	X7	Y7	Z7	X8	Y8	Z8	X9	Y9	Z9	X10	Y10	Z10	X11	Y11	Z11	X12	Y12	Z12	X13	Y13	Z13	X14	Y14	Z14	X15	Y15	Z15	X16	Y16	Z16	X17	Y17	Z17	X18	Y18	Z18	X19	Y19	Z19	
335	1.67	303.41867	1320.1818	-1203.5208	158.97171	1245.1764	-1196.8011	330.00339	1235.4735	-1349.9271	193.20563	877.23254	-1076.0243	190.932	887.9812	-1336.0098	362.4325	939.9351	-1160.8234	363.342	937.5382	-1235.6062	235.00891	558.69501	-984.3161	243.83723	418.78821	-982.23615	282.88931	214.73097	-948.99518	306.6684	64.066162	-958.32739	327.21954	48.607979	-1017.0272	162.60187	37.40778	-928.36139	250.65031	731.59442	-1406.1958	262.73206	420.2254	-1426.6335	279.3783	333.65088	-1449.1343	303.35498	74.125137	-1444.7234	324.59128	48.612972	-1380.934	162.36673	40.318127	-1477.8241	
336	1.675	303.25375	1320.2236	-1203.4912	159.01204	1244.9736	-1196.7672	329.78763	1235.4924	-1349.9404	193.06673	877.28845	-1075.954	190.5116	888.0663	-1335.8878	362.1906	940.073	-1160.8368	362.7937	937.5146	-1235.4637	235.13486	558.6922	-984.47107	243.99051	418.84937	-982.3761	283.04111	214.76172	-949.11743	306.76099	64.13501	-958.34869	327.20306	48.642437	-1017.0453	162.62033	37.386772	-928.38165	250.28957	731.67157	-1406.0634	263.02939	420.28256	-1426.406	279.65573	333.71539	-1448.9464	303.32248	74.224266	-1444.6448	324.58771	48.64048	-1380.8865	162.36707	40.330032	-1477.8036	
337	1.68	303.10965	1320.2812	-1203.4755	158.85814	1244.9843	-1196.7407	329.54037	1235.5168	-1349.9071	192.91513	877.30347	-1075.8695	190.1106	888.1658	-1335.7882	361.9046	940.2477	-1160.5559	362.189	937.1133	-1235.4056	235.30978	558.60693	-984.672	244.19377	418.7995	-982.56635	283.13016	214.75574	-949.16077	306.89911	64.246346	-958.28577	327.20923	48.76162	-1017.0761	162.60544	37.373524	-928.31183	249.94183	731.81189	-1405.9575	263.40616	420.36179	-1426.174	279.94135	333.85025	-1448.7631	303.33286	74.346619	-1444.5936	324.57187	48.700497	-1380.7808	162.34938	40.401913	-1477.7928	
338	1.685	302.97012	1320.3337	-1203.455	158.66255	1245.0424	-1196.6616	329.24323	1235.5072	-1349.8114	192.7749	877.30328	-1075.8215	189.5688	888.7099	-1336.2089	361.6083	940.397	-1160.3339	361.3445	936.6163	-1235.1531	235.45815	558.56958	-984.80011	244.42833	418.80035	-982.72748	283.29568	214.73883	-949.27734	306.76709	64.238678	-958.25293	327.22015	48.791641	-1017.054	162.64113	37.364101	-928.33173	249.66066	731.88934	-1405.8663	263.82184	420.41058	-1425.8995	280.29279	333.91199	-1448.5914	303.50305	74.391869	-1444.626	324.52887	48.695393	-1380.708	162.37111	40.419991	-1477.7693	
339	1.69	302.82489	1320.4152	-1203.4093	158.45984	1245.1311	-1196.5841	328.9808	1235.5626	-1349.714	192.57877	877.33014	-1075.7429	189.3538	888.3871	-1335.6653	361.3956	940.4208	-1160.5593	360.7737	936.5795	-1235.0143	235.63206	558.51874	-984.9173	244.7236	418.79337	-982.90442	283.41623	214.79388	-949.33063	306.81247	64.233032	-958.30554	327.27567	48.767982	-1017.0803	162.6109	37.371387	-928.29846	249.36345	731.89929	-1405.7629	264.26428	420.44452	-1425.6578	280.68777	333.88245	-1448.4268	303.48593	74.414803	-1444.5435	324.55896	48.636147	-1380.6766	162.38286	40.380844	-1477.7589	
340	1.695	302.68268	1320.5443	-1203.3807	158.24138	1245.2952	-1196.5352	328.77621	1235.6274	-1349.7029	192.41226	877.37671	-1075.6764	188.9532	888.4539	-1335.571	361.1563	940.4283	-1160.8212	361.3115	937.4819	-1235.6603	235.81441	558.49048	-985.07855	245.0462	418.83524	-983.13007	283.56464	214.84506	-949.43927	306.79089	64.12999	-958.45514	327.3428	48.754887	-1017.1487	162.62567	37.408493	-928.32416	249.09145	731.8454	-1405.6947	264.71924	420.42505	-1425.4159	281.10336	333.89471	-1448.259	303.6571	74.310814	-1444.562	324.673	48.557438	-1380.7753	162.42297	40.321304	-1477.7498	
341	1.7	302.51578	1320.5852	-1203.3489	158.01251	1245.4722	-1196.4419	328.66974	1235.7188	-1349.7098	192.23599	877.3866	-1075.6702	188.5618	888.4876	-1335.5192	360.9434	940.4178	-1161.1821	360.9658	937.5088	-1235.7638	236.05887	558.46069	-985.26532	245.3335	418.87747	-983.27802	283.74606	214.87842	-949.53595	307.10907	63.996441	-958.66016	327.26706	48.655827	-1017.1405	162.59358	37.440933	-928.31158	248.78375	731.80359	-1405.6217	265.17929	420.40985	-1425.1996	281.52722	333.8688	-1448.0985	303.66199	74.284584	-1444.4935	324.72525	48.51096	-1380.8898	162.43852	40.269032	-1477.7589	
342	1.705	302.33582	1320.6361	-1203.3062	157.81941	1245.576	-1196.3397	328.43637	1235.7812	-1349.6678	192.10669	877.35724	-1075.6694	188.1852	888.5855	-1335.4908	360.6881	940.5216	-1161.3453	360.7273	937.891	-1235.8467	236.31813	558.46716	-985.41315	245.65938	418.89163	-983.41437	283.94592	214.89984	-949.64795	307.15018	64.006493	-958.71228	327.23749	48.646282	-1017.1628	162.57913	37.455315	-928.30725	248.47314	731.85809	-1405.5745	265.60501	420.45343	-1424.9629	281.90424	333.92624	-1447.955	303.6904	74.317032	-1444.4512	324.74857	48.477489	-1380.8959	162.42555	40.293392	-1477.7964	
343	1.71	302.15286	1320.7438	-1203.2668	157.68274	1245.6454	-1196.307	328.22101	1235.7609	-1349.6432	191.99962	877.32367	-1075.6862	187.8317	888.6422	-1335.4056	360.3979	940.6791	-1161.1368	360.3526	937.8462	-1235.8838	236.55321	558.39166	-985.5611	246.03281	418.80734	-983.59442	284.08777	214.92836	-949.70599	307.12564	64.023697	-958.69238	327.25095	48.73465	-1017.2093	162.60078	37.467213	-928.30939	248.18542	732.01617	-1405.5615	266.02835	420.58948	-1424.7667	282.29755	333.99268	-1447.8472	303.73618	74.392464	-1444.4272	324.74969	48.54335	-1380.799	162.44562	40.393112	-1477.8552	
344	1.715	301.98187	1320.7697	-1203.2823	157.51361	1245.7377	-1196.2699	327.97443	1235.7617	-1349.5983	191.83679	877.31744	-1075.6313	187.4801	888.7009	-1335.3187	360.0925	940.846	-1161.0479	359.9823	937.8136	-1235.9375	236.74008	558.38214	-985.66418	246.38943	418.82318	-983.69128	284.28476	214.96519	-949.7597	306.83414	64.192284	-958.57379	327.2955	48.808323	-1017.2665	162.67714	37.431091	-928.33423	247.92314	732.06451	-1405.5243	266.48755	420.66739	-1424.5538	282.69879	334.02789	-1447.6813	303.80814	74.495399	-1444.4259	324.70825	48.60601	-1380.6543	162.43967	40.480671	-1477.9216	
345	1.72	301.8205	1320.7552	-1203.3176	157.26851	1245.8635	-1196.2128	327.79037	1235.7314	-1349.5662	191.69583	877.35962	-1075.6626	187.1693	888.6826	-1335.2274	359.8488	940.9681	-1161.0901	359.6868	937.9412	-1236.0117	236.97968	558.33405	-985.80072	246.82246	418.84167	-983.87146	284.47241	214.972	-949.82654	306.81552	64.156845	-958.60065	327.32083	48.741901	-1017.2802	162.71567	37.39386	-928.35376	247.71796	732.00671	-1405.4745	266.90308	420.68295	-1424.3524	283.12082	334.04453	-1447.572	303.87274	74.459579	-1444.4031	324.73752	48.592472	-1380.623	162.47351	40.44239	-1477.9379	
346	1.725	301.59073	1320.7457	-1203.2528	157.17537	1245.8516	-1196.2136	327.54306	1235.7012	-1349.4813	191.51556	877.38611	-1075.6235	186.8753	888.631	-1335.1274	359.6217	941.0061	-1161.2026	359.4609	938.136	-1236.0875	237.18361	558.33527	-985.89441	247.19884	418.8439	-984.01544	284.6756	215.00616	-949.88232	307.30692	64.01815	-958.76178	327.30307	48.646709	-1017.2732	162.68848	37.383854	-928.33496	247.57262	731.92188	-1405.4391	267.31415	420.61575	-1424.1458	283.47461	333.96616	-1447.4365	304.02444	74.344017	-1444.4211	324.79187	48.564266	-1380.6833	162.49928	40.336845	-1477.9142	
347	1.73	301.39807	1320.809	-1203.2004	156.95735	1245.9415	-1196.1876	327.27594	1235.6597	-1349.4025	191.37872	877.37585	-1075.6089	186.5486	888.5817	-1335.0444	359.3868	941.0689	-1161.3555	359.2606	938.334	-1236.173	237.41621	558.32117	-985.99933	247.57941	418.8559	-984.17584	284.89798	214.97998	-949.97119	307.34027	64.011101	-958.78314	327.29788	48.605156	-1017.2467	162.67152	37.372353	-928.3186	247.34602	731.92212	-1405.4104	267.63446	420.60345	-1423.9694	283.76123	333.96085	-1447.3032	304.0658	74.317566	-1444.3723	324.82245	48.523701	-1380.6777	162.49892	40.349243	-1477.9171	
348	1.735	301.20636	1320.8378	-1203.1936	156.69849	1246.0454	-1196.0851	326.96036	1235.678	-1349.3296	191.17937	877.34882	-1075.5441	186.2695	888.5409	-1334.967	359.1403	941.1738	-1161.344	358.9603	938.4166	-1236.1791	237.69066	558.24146	-986.13867	247.98299	418.8096	-984.34668	285.13208	214.93628	-950.08099	307.4198	64.040085	-958.78198	327.2861	48.65403	-1017.2448	162.68399	37.365257	-928.26825	247.15291	731.94495	-1405.3793	267.91464	420.67896	-1423.7941	284.00558	334.03543	-1447.1899	304.0943	74.345299	-1444.3297	324.84213	48.501472	-1380.6638	162.48335	40.365082	-1477.9038	
349	1.74	301.00018	1320.8844	-1203.1401	156.46552	1246.1484	-1195.9952	326.81253	1235.7848	-1349.3474	191.00731	877.3576	-1075.5238	185.969	888.5939	-1334.912	358.8992	941.2508	-1161.2941	358.6916	938.5761	-1236.1882	237.91501	558.23865	-986.25299	248.39586	418.79547	-984.54205	285.31342	214.92201	-950.14673	307.43466	64.043747	-958.78851	327.30811	48.689766	-1017.2539	162.64465	37.399677	-928.23926	246.98569	732.01202	-1405.3646	268.20316	420.7583	-1423.6495	284.24792	334.06378	-1447.0938	304.08942	74.421028	-1444.2667	324.83075	48.472179	-1380.6638	162.46956	40.427109	-1477.9249	
350	1.745	300.78171	1320.9191	-1203.123	156.23727	1246.1798	-1195.9054	326.60065	1235.8009	-1349.3406	190.81169	877.34399	-1075.4724	185.7374	888.574	-1334.8878	358.6745	941.2996	-1161.3689	358.4593	938.812	-1236.2136	238.12677	558.21924	-986.37756	248.73033	418.83221	-984.66522	285.50214	214.98267	-950.22943	307.50754	64.046646	-958.79163	327.33118	48.659088	-1017.2739	162.67351	37.402515	-928.27106	246.89078	731.9751	-1405.3646	268.51422	420.6879	-1423.5085	284.48535	334.05768	-1447.0118	304.12326	74.424805	-1444.2483	324.8591	48.41021	-1380.7202	162.51073	40.436909	-1477.9799	
351	1.75	300.59631	1320.9269	-1203.1545	156.03015	1246.2424	-1195.9056	326.38037	1235.7833	-1349.3645	190.61766	877.34485	-1075.443	185.5223	888.5433	-1334.8872	358.4704	941.38	-1161.5854	358.2564	938.9567	-1236.2288	238.31329	558.24457	-986.47443	249.06412	418.94019	-984.75519	285.67371	215.07025	-950.24481	307.58835	64.024719	-958.82947	327.37225	48.621071	-1017.3001	162.70535	37.379234	-928.29199	246.82021	731.90594	-1405.3693	268.73712	420.62921	-1423.403	284.71085	333.99716	-1446.9313	304.20581	74.329765	-1444.2245	324.8869	48.390453	-1380.7507	162.53766	40.347782	-1477.973	
